HIERARCHY
ROOT hip
{
  OFFSET 0 0 0
  CHANNELS 6 Xposition Yposition Zposition Zrotation Yrotation Xrotation
  JOINT abdomen
  {
    OFFSET 0 20.6881 -0.73152
    CHANNELS 3 Zrotation Xrotation Yrotation
    JOINT chest
    {
      OFFSET 0 11.7043 -0.48768
      CHANNELS 3 Zrotation Xrotation Yrotation
      JOINT neck
      {
        OFFSET 0 22.1894 -2.19456
        CHANNELS 3 Zrotation Xrotation Yrotation
        JOINT head
        {
          OFFSET -0.24384 7.07133 1.2192
          CHANNELS 3 Zrotation Xrotation Yrotation
          JOINT leftEye
          {
            OFFSET 4.14528 8.04674 8.04672
            CHANNELS 3 Zrotation Xrotation Yrotation
            End Site
            {
              OFFSET 1 0 0
            }
          }
          JOINT rightEye
          {
            OFFSET -3.6576 8.04674 8.04672
            CHANNELS 3 Zrotation Xrotation Yrotation
            End Site
            {
              OFFSET 1 0 0
            }
          }
        }
      }
      JOINT rCollar
      {
        OFFSET -2.68224 19.2634 -4.8768
        CHANNELS 3 Zrotation Xrotation Yrotation
        JOINT rShldr
        {
          OFFSET -8.77824 -1.95073 1.46304
          CHANNELS 3 Zrotation Xrotation Yrotation
          JOINT rForeArm
          {
            OFFSET -28.1742 -1.7115 0.48768
            CHANNELS 3 Zrotation Xrotation Yrotation
            JOINT rHand
            {
              OFFSET -22.5879 0.773209 7.07136
              CHANNELS 3 Zrotation Xrotation Yrotation
              JOINT rThumb1
              {
                OFFSET -1.2192 -0.487915 3.41376
                CHANNELS 3 Zrotation Xrotation Yrotation
                JOINT rThumb2
                {
                  OFFSET -3.37035 -0.52449 3.41376
                  CHANNELS 3 Zrotation Xrotation Yrotation
                  End Site
                  {
                    OFFSET -1.78271 -1.18214 1.43049
                  }
                }
              }
              JOINT rIndex1
              {
                OFFSET -7.75947 0.938293 5.60832
                CHANNELS 3 Zrotation Xrotation Yrotation
                JOINT rIndex2
                {
                  OFFSET -2.54057 -0.884171 1.56538
                  CHANNELS 3 Zrotation Xrotation Yrotation
                  End Site
                  {
                    OFFSET -1.62519 -0.234802 1.16502
                  }
                }
              }
              JOINT rMid1
              {
                OFFSET -8.24714 1.18213 3.41376
                CHANNELS 3 Zrotation Xrotation Yrotation
                JOINT rMid2
                {
                  OFFSET -3.10165 -0.590103 1.0647
                  CHANNELS 3 Zrotation Xrotation Yrotation
                  End Site
                  {
                    OFFSET -2.48547 -0.328903 0.83742
                  }
                }
              }
              JOINT rRing1
              {
                OFFSET -8.82822 0.546677 1.51678
                CHANNELS 3 Zrotation Xrotation Yrotation
                JOINT rRing2
                {
                  OFFSET -2.60934 -0.819778 -0.0198488
                  CHANNELS 3 Zrotation Xrotation Yrotation
                  End Site
                  {
                    OFFSET -2.33842 -0.294052 0.168128
                  }
                }
              }
              JOINT rPinky1
              {
                OFFSET -8.27202 -0.0477905 -0.4584
                CHANNELS 3 Zrotation Xrotation Yrotation
                JOINT rPinky2
                {
                  OFFSET -1.82734 -0.647385 -0.700984
                  CHANNELS 3 Zrotation Xrotation Yrotation
                  End Site
                  {
                    OFFSET -1.69225 -0.51767 -0.607171
                  }
                }
              }
            }
          }
        }
      }
      JOINT lCollar
      {
        OFFSET 2.68224 19.2634 -4.8768
        CHANNELS 3 Zrotation Xrotation Yrotation
        JOINT lShldr
        {
          OFFSET 8.77824 -1.95073 1.46304
          CHANNELS 3 Zrotation Xrotation Yrotation
          JOINT lForeArm
          {
            OFFSET 28.1742 -1.7115 0.48768
            CHANNELS 3 Zrotation Xrotation Yrotation
            JOINT lHand
            {
              OFFSET 22.5879 0.773209 7.07136
              CHANNELS 3 Zrotation Xrotation Yrotation
              JOINT lThumb1
              {
                OFFSET 1.2192 -0.487915 3.41376
                CHANNELS 3 Zrotation Xrotation Yrotation
                JOINT lThumb2
                {
                  OFFSET 3.37035 -0.52449 3.41376
                  CHANNELS 3 Zrotation Xrotation Yrotation
                  End Site
                  {
                    OFFSET 1.78271 -1.18214 1.43049
                  }
                }
              }
              JOINT lIndex1
              {
                OFFSET 7.75947 0.938293 5.60832
                CHANNELS 3 Zrotation Xrotation Yrotation
                JOINT lIndex2
                {
                  OFFSET 2.54057 -0.884171 1.56538
                  CHANNELS 3 Zrotation Xrotation Yrotation
                  End Site
                  {
                    OFFSET 1.62519 -0.234802 1.16502
                  }
                }
              }
              JOINT lMid1
              {
                OFFSET 8.24714 1.18213 3.41376
                CHANNELS 3 Zrotation Xrotation Yrotation
                JOINT lMid2
                {
                  OFFSET 3.10165 -0.590103 1.0647
                  CHANNELS 3 Zrotation Xrotation Yrotation
                  End Site
                  {
                    OFFSET 2.48547 -0.328903 0.83742
                  }
                }
              }
              JOINT lRing1
              {
                OFFSET 8.82822 0.546677 1.51678
                CHANNELS 3 Zrotation Xrotation Yrotation
                JOINT lRing2
                {
                  OFFSET 2.60934 -0.819778 -0.0198488
                  CHANNELS 3 Zrotation Xrotation Yrotation
                  End Site
                  {
                    OFFSET 2.33842 -0.294052 0.168128
                  }
                }
              }
              JOINT lPinky1
              {
                OFFSET 8.27202 -0.0477905 -0.4584
                CHANNELS 3 Zrotation Xrotation Yrotation
                JOINT lPinky2
                {
                  OFFSET 1.82734 -0.647385 -0.700984
                  CHANNELS 3 Zrotation Xrotation Yrotation
                  End Site
                  {
                    OFFSET 1.69225 -0.51767 -0.607171
                  }
                }
              }
            }
          }
        }
      }
    }
  }
  JOINT rButtock
  {
    OFFSET -8.77824 4.35084 1.2192
    CHANNELS 3 Zrotation Xrotation Yrotation
    JOINT rThigh
    {
      OFFSET 0 -1.70687 -2.19456
      CHANNELS 3 Zrotation Xrotation Yrotation
      JOINT rShin
      {
        OFFSET 0 -36.8199 0.73152
        CHANNELS 3 Zrotation Xrotation Yrotation
        JOINT rFoot
        {
          OFFSET 0.73152 -45.1104 -5.12064
          CHANNELS 3 Zrotation Xrotation Yrotation
          End Site
          {
            OFFSET -1.1221 -3.69964 12.103
          }
        }
      }
    }
  }
  JOINT lButtock
  {
    OFFSET 8.77824 4.35084 1.2192
    CHANNELS 3 Zrotation Xrotation Yrotation
    JOINT lThigh
    {
      OFFSET 0 -1.70687 -2.19456
      CHANNELS 3 Zrotation Xrotation Yrotation
      JOINT lShin
      {
        OFFSET 0 -36.8199 0.73152
        CHANNELS 3 Zrotation Xrotation Yrotation
        JOINT lFoot
        {
          OFFSET -0.73152 -45.1104 -5.12064
          CHANNELS 3 Zrotation Xrotation Yrotation
          End Site
          {
            OFFSET 1.1221 -3.69964 12.103
          }
        }
      }
    }
  }
}
MOTION
Frames:	7
Frame Time:	0.00833333
-3.45056 84.2564 39.4329 0.0 0.0 0.0 -1.24151 -0.00398118 -0.0340789 -0.342494 -0.00249262 -0.0593272 -1.44842e-14 0.0 1.98785e-16 -4.3509e-14 3.18055e-15 5.0628e-16 -0.0 0.0 0.0 -0.0 0.0 0.0 -7.25752e-15 -5.39669e-17 2.48481e-16 -1.51133e-13 -9.93923e-16 1.78906e-15 -2.64309e-12 7.49021e-13 8.26944e-14 -3.0194e-11 -9.98297e-13 2.73528e-13 -7.12388e-11 -5.43344e-13 8.015e-13 -1.23032e-10 -9.35083e-13 1.38513e-12 -7.12337e-11 -5.43477e-13 7.95139e-13 7.73091 5.47488 0.417314 -7.12388e-11 -5.43974e-13 8.07861e-13 2.90554 0.965183 0.102902 -7.12327e-11 -5.43278e-13 8.0309e-13 10.2786 0.731801 0.0259123 -7.12464e-11 -5.42682e-13 8.14222e-13 2.22167 -0.733487 -0.20892 -7.35363e-15 -5.47434e-17 -4.96962e-17 -1.531e-13 -1.09953e-15 5.96354e-16 -2.63434e-12 -8.27739e-13 3.49861e-14 -3.01963e-11 5.80451e-13 3.435e-13 -7.12188e-11 -5.39235e-13 8.07861e-13 -1.22985e-10 -9.38264e-13 1.39626e-12 -7.12237e-11 -5.37911e-13 8.11041e-13 -7.73091 5.47488 -0.417314 -7.12187e-11 -5.39005e-13 8.015e-13 -2.90554 0.965183 -0.102902 -7.1226e-11 -5.39303e-13 8.02295e-13 -10.2786 0.731801 -0.0259123 -7.1215e-11 -5.38706e-13 7.95139e-13 -2.22167 -0.733487 0.20892 -2.03217e-16 0.0 -3.88251e-19 -0.453812 -1.92099 -0.00952759 -0.00915581 -2.07857 -0.075554 -0.487483 3.99699 0.136657 2.03217e-16 0.0 3.88251e-19 -1.43725 -5.97115 0.129661 -0.00126439 5.25796 -0.0454152 0.507796 0.710742 -0.0722717
-4.3715 84.2066 38.7451 -3.1902 -2.0254 -0.6334 -0.0471757 1.957 0.771098 -0.58699 -2.01894 0.182429 0.0211357 1.46604 -0.504924 0.646911 0.225447 -1.00534 -0.0 0.0 0.0 -0.0 0.0 0.0 -1.0487e-14 1.72774e-15 -1.93671e-14 24.1528 5.49103 -5.64631 -6.57123 -3.67298 9.40783 0.00218887 1.03782 0.145769 3.12272e-11 -1.64389e-10 -8.1889e-11 5.35245e-11 -2.8429e-10 -1.42293e-10 3.12318e-11 -1.64388e-10 -8.18954e-11 7.73091 5.47488 0.417314 3.12263e-11 -1.64389e-10 -8.18834e-11 2.90554 0.965183 0.102902 3.12331e-11 -1.64389e-10 -8.1887e-11 10.2786 0.731801 0.0259123 3.12193e-11 -1.64388e-10 -8.18772e-11 2.22167 -0.733487 -0.20892 -1.0593e-14 1.72766e-15 -1.96777e-14 -23.846 6.45103 3.04765 6.10544 -3.2925 -8.90595 -2.9968e-05 -0.122656 0.017238 4.78326e-11 1.94048e-10 2.66867e-11 8.30917e-11 3.35509e-10 4.60434e-11 4.78242e-11 1.94047e-10 2.66869e-11 -7.73091 5.47488 -0.417314 4.78302e-11 1.94045e-10 2.668e-11 -2.90554 0.965183 -0.102902 4.78266e-11 1.94047e-10 2.66804e-11 -10.2786 0.731801 -0.0259123 4.7838e-11 1.94048e-10 2.66728e-11 -2.22167 -0.733487 0.20892 -2.03217e-16 0.0 -3.88251e-19 -1.02177 0.345025 0.948511 -0.00235528 -1.3301 -0.0306319 -0.704482 -2.03468 -3.92097 2.03217e-16 0.0 3.88251e-19 1.35936 -6.38158 -0.528017 -0.0125379 10.3562 -0.180396 0.890571 -4.77375 3.3883
-4.37104 84.2047 38.7395 -3.1878 -2.0278 -0.6095 1.15594 4.02866 1.62444 -0.825198 -4.14705 0.438853 0.0699489 3.01517 -1.03955 1.34131 0.459609 -2.06731 -0.0 0.0 0.0 -0.0 0.0 0.0 -1.47136e-14 4.0259e-15 -4.06546e-14 50.8713 11.1193 -11.7827 -12.2218 -7.22452 19.473 -0.00124318 2.13527 0.300077 1.45975e-10 -3.44967e-10 -1.71788e-10 2.51249e-10 -5.96578e-10 -2.98527e-10 1.45979e-10 -3.44965e-10 -1.71794e-10 7.73091 5.47488 0.417314 1.45973e-10 -3.44967e-10 -1.71783e-10 2.90554 0.965183 0.102902 1.4598e-10 -3.44967e-10 -1.71785e-10 10.2786 0.731801 0.0259123 1.45966e-10 -3.44966e-10 -1.71777e-10 2.22167 -0.733487 -0.20892 -1.48286e-14 4.02651e-15 -4.09776e-14 -49.8187 13.2098 6.39676 11.46 -6.50794 -18.4135 1.92867e-05 -0.254313 0.0357414 1.80308e-10 4.07869e-10 5.8234e-11 3.12396e-10 7.05189e-10 1.00485e-10 1.80296e-10 4.07864e-10 5.82308e-11 -7.73091 5.47488 -0.417314 1.80303e-10 4.07863e-10 5.82266e-11 -2.90554 0.965183 -0.102902 1.80304e-10 4.07866e-10 5.82268e-11 -10.2786 0.731801 -0.0259123 1.80315e-10 4.07867e-10 5.82187e-11 -2.22167 -0.733487 0.20892 -2.03217e-16 0.0 -3.88251e-19 -1.70416 2.73913 1.96339 0.00355876 -0.538586 0.0168269 -1.86751 -8.33498 -8.29291 2.03217e-16 0.0 3.88251e-19 4.3059 -6.81459 -1.22411 0.00265824 15.7462 -0.329822 2.02464 -10.5076 7.14376
-4.36906 84.2041 38.7388 -3.1797 -2.027 -0.6067 2.17547 5.87441 2.39267 -1.0247 -6.05147 0.669333 0.141109 4.39674 -1.51875 1.96446 0.67551 -3.0162 -0.0 0.0 0.0 -0.0 0.0 0.0 -1.69459e-14 5.29115e-15 -5.85984e-14 75.7594 15.8222 -17.546 -16.2139 -9.83222 28.6233 -0.00929531 3.11337 0.437882 2.36159e-10 -4.92081e-10 -2.4727e-10 4.06637e-10 -8.51e-10 -4.29649e-10 2.36163e-10 -4.92078e-10 -2.47277e-10 7.73091 5.47488 0.417314 2.36156e-10 -4.9208e-10 -2.47266e-10 2.90554 0.965183 0.102902 2.36165e-10 -4.92081e-10 -2.47267e-10 10.2786 0.731801 0.0259123 2.36151e-10 -4.9208e-10 -2.4726e-10 2.22167 -0.733487 -0.20892 -1.70719e-14 5.29248e-15 -5.89338e-14 -73.689 19.1276 9.62079 15.3385 -8.92457 -27.0267 0.000131513 -0.367967 0.0517149 2.85935e-10 5.83224e-10 7.84443e-11 4.95246e-10 1.0084e-09 1.35338e-10 2.8592e-10 5.83215e-10 7.84386e-11 -7.73091 5.47488 -0.417314 2.85928e-10 5.83214e-10 7.84369e-11 -2.90554 0.965183 -0.102902 2.85932e-10 5.8322e-10 7.84367e-11 -10.2786 0.731801 -0.0259123 2.85944e-10 5.83221e-10 7.84281e-11 -2.22167 -0.733487 0.20892 -2.03217e-16 0.0 -3.88251e-19 -2.38552 4.87108 2.87492 0.00772603 0.166832 0.0591379 -3.73835 -13.7963 -12.3911 2.03217e-16 0.0 3.88251e-19 6.92411 -7.1995 -1.84671 0.041642 20.5523 -0.471964 3.69407 -15.5085 10.6668
-4.36836 84.2065 38.7439 -3.1833 -2.0112 -0.6283 2.8531 7.15973 2.93745 -1.16355 -7.39702 0.831702 0.213322 5.3607 -1.85562 2.39343 0.846516 -3.68222 -0.0 0.0 0.0 -0.0 0.0 0.0 -1.41921e-14 3.97414e-15 -6.81831e-14 93.7206 18.8306 -21.7958 -18.4797 -11.2118 35.1052 -0.017679 3.79317 0.533883 2.64936e-10 -5.55535e-10 -2.86711e-10 4.56183e-10 -9.60756e-10 -4.97992e-10 2.6494e-10 -5.55532e-10 -2.86717e-10 7.73091 5.47488 0.417314 2.64933e-10 -5.55534e-10 -2.86708e-10 2.90554 0.965183 0.102902 2.64942e-10 -5.55535e-10 -2.86708e-10 10.2786 0.731801 0.0259123 2.64928e-10 -5.55534e-10 -2.86702e-10 2.22167 -0.733487 -0.20892 -1.43344e-14 3.97628e-15 -6.8531e-14 -90.755 23.1561 12.0784 17.5909 -10.2535 -33.1088 0.000233803 -0.436609 0.0613626 3.2444e-10 6.62414e-10 7.03125e-11 5.61957e-10 1.14545e-09 1.21218e-10 3.24424e-10 6.62405e-10 7.03062e-11 -7.73091 5.47488 -0.417314 3.24432e-10 6.62403e-10 7.03062e-11 -2.90554 0.965183 -0.102902 3.24437e-10 6.6241e-10 7.03054e-11 -10.2786 0.731801 -0.0259123 3.2445e-10 6.62411e-10 7.02966e-11 -2.22167 -0.733487 0.20892 -2.03217e-16 0.0 -3.88251e-19 -2.90342 6.3537 3.51638 0.0100119 0.656999 0.0886096 -5.52895 -17.4628 -15.4218 2.03217e-16 0.0 3.88251e-19 8.74154 -7.46636 -2.28316 0.0842604 23.8989 -0.577118 5.24465 -18.9025 13.262
-4.37486 84.2079 38.7436 -3.2117 -2.0138 -0.6285 3.10193 7.66447 3.16403 -1.23767 -7.96582 0.89652 0.263716 5.73679 -1.99053 2.54419 0.967456 -3.95256 -0.0 0.0 0.0 -0.0 0.0 0.0 -3.289e-16 -2.41637e-15 -6.51218e-14 100.926 19.9084 -23.5553 -19.2701 -11.6408 37.6733 -0.021537 4.05502 0.570922 1.7487e-10 -4.76176e-10 -2.82089e-10 3.00757e-10 -8.23575e-10 -4.89302e-10 1.74874e-10 -4.76174e-10 -2.82095e-10 7.73091 5.47488 0.417314 1.74867e-10 -4.76175e-10 -2.82087e-10 2.90554 0.965183 0.102902 1.74875e-10 -4.76177e-10 -2.82086e-10 10.2786 0.731801 0.0259123 1.74863e-10 -4.76176e-10 -2.82079e-10 2.22167 -0.733487 -0.20892 -4.96956e-16 -2.41319e-15 -6.54879e-14 -97.5302 24.7016 13.1301 18.3776 -10.6741 -35.4924 0.000249892 -0.440278 0.0618783 2.38314e-10 5.80785e-10 5.24183e-12 4.13108e-10 1.00467e-09 8.70664e-12 2.38299e-10 5.80777e-10 5.23818e-12 -7.73091 5.47488 -0.417314 2.38307e-10 5.80776e-10 5.239e-12 -2.90554 0.965183 -0.102902 2.3831e-10 5.80781e-10 5.2369e-12 -10.2786 0.731801 -0.0259123 2.38323e-10 5.80782e-10 5.22836e-12 -2.22167 -0.733487 0.20892 -2.03217e-16 0.0 -3.88251e-19 -3.12313 6.93268 3.77016 0.0107643 0.845382 0.10009 -6.34136 -18.8478 -16.6587 2.03217e-16 0.0 3.88251e-19 9.44417 -7.56783 -2.45908 0.104426 25.2014 -0.617415 5.94198 -20.2145 14.3062
-4.37832 84.207 38.7396 -3.2266 -2.0187 -0.6128 3.05709 7.61253 3.161 -1.26926 -7.97962 0.890944 0.292713 5.69341 -1.9804 2.49413 1.05223 -3.94021 -0.0 0.0 0.0 -0.0 0.0 0.0 2.1273e-14 -1.23614e-14 -5.30724e-14 100.199 19.7404 -23.4343 -19.1949 -11.608 37.4123 -0.0210123 4.01837 0.565737 1.48159e-12 -2.96033e-10 -2.45689e-10 1.62566e-12 -5.12124e-10 -4.25071e-10 1.48569e-12 -2.96033e-10 -2.45694e-10 7.73091 5.47488 0.417314 1.47894e-12 -2.96032e-10 -2.45689e-10 2.90554 0.965183 0.102902 1.4861e-12 -2.96034e-10 -2.45686e-10 10.2786 0.731801 0.0259123 1.47508e-12 -2.96033e-10 -2.45678e-10 2.22167 -0.733487 -0.20892 2.10726e-14 -1.2357e-14 -5.34607e-14 -96.7602 24.5233 13.0753 18.2832 -10.6205 -35.2055 0.00019989 -0.39763 0.0558841 6.46239e-11 3.85533e-10 -9.96776e-11 1.1281e-10 6.67601e-10 -1.72664e-10 6.46141e-11 3.85528e-10 -9.96762e-11 -7.73091 5.47488 -0.417314 6.4621e-11 3.85526e-10 -9.96752e-11 -2.90554 0.965183 -0.102902 6.46196e-11 3.85529e-10 -9.96791e-11 -10.2786 0.731801 -0.0259123 6.46324e-11 3.8553e-10 -9.96871e-11 -2.22167 -0.733487 0.20892 -2.03217e-16 0.0 -3.88251e-19 -3.11282 6.86752 3.74409 0.0106756 0.818228 0.0987154 -6.24483 -18.6743 -16.5247 2.03217e-16 0.0 3.88251e-19 9.35271 -7.55151 -2.44857 0.101695 25.0439 -0.607742 5.86204 -20.0892 14.1685
